<?xml version="1.0" encoding="UTF-8"?>
<svg width="1284" height="2778" viewBox="0 0 1284 2778" xmlns="http://www.w3.org/2000/svg">
  <!-- Purple background -->
  <rect width="1284" height="2778" fill="#6B46C1"/>
  
  <!-- Main Worzzle text -->
  <text x="642" y="1500" font-family="Arial, sans-serif" font-size="120" font-weight="bold" 
        text-anchor="middle" fill="white">Worzzle</text>
  
  <!-- Subtitle -->
  <text x="642" y="1600" font-family="Arial, sans-serif" font-size="36" 
        text-anchor="middle" fill="white" opacity="0.8">Word Hunt Game</text>
  
  <!-- Decorative letter grid -->
  <g opacity="0.15" stroke="white" stroke-width="3" fill="none">
    <!-- 5x5 grid -->
    <rect x="442" y="800" width="80" height="80"/>
    <rect x="522" y="800" width="80" height="80"/>
    <rect x="602" y="800" width="80" height="80"/>
    <rect x="682" y="800" width="80" height="80"/>
    <rect x="762" y="800" width="80" height="80"/>
    
    <rect x="442" y="880" width="80" height="80"/>
    <rect x="522" y="880" width="80" height="80"/>
    <rect x="602" y="880" width="80" height="80"/>
    <rect x="682" y="880" width="80" height="80"/>
    <rect x="762" y="880" width="80" height="80"/>
    
    <rect x="442" y="960" width="80" height="80"/>
    <rect x="522" y="960" width="80" height="80"/>
    <rect x="602" y="960" width="80" height="80"/>
    <rect x="682" y="960" width="80" height="80"/>
    <rect x="762" y="960" width="80" height="80"/>
    
    <rect x="442" y="1040" width="80" height="80"/>
    <rect x="522" y="1040" width="80" height="80"/>
    <rect x="602" y="1040" width="80" height="80"/>
    <rect x="682" y="1040" width="80" height="80"/>
    <rect x="762" y="1040" width="80" height="80"/>
    
    <rect x="442" y="1120" width="80" height="80"/>
    <rect x="522" y="1120" width="80" height="80"/>
    <rect x="602" y="1120" width="80" height="80"/>
    <rect x="682" y="1120" width="80" height="80"/>
    <rect x="762" y="1120" width="80" height="80"/>
  </g>
  
  <!-- Sample letters in grid -->
  <g opacity="0.3" fill="white" font-family="Arial, sans-serif" font-size="48" font-weight="bold" text-anchor="middle">
    <text x="482" y="855">W</text>
    <text x="562" y="855">O</text>
    <text x="642" y="855">R</text>
    <text x="722" y="855">D</text>
    <text x="802" y="855">S</text>
  </g>
  
  <!-- Floating decorative elements -->
  <circle cx="200" cy="600" r="12" fill="white" opacity="0.4"/>
  <circle cx="1084" cy="700" r="8" fill="white" opacity="0.3"/>
  <circle cx="150" cy="2200" r="15" fill="white" opacity="0.5"/>
  <circle cx="1134" cy="2100" r="10" fill="white" opacity="0.4"/>
  <circle cx="100" cy="1400" r="6" fill="white" opacity="0.3"/>
  <circle cx="1184" cy="1300" r="9" fill="white" opacity="0.4"/>
</svg>
